<svg xmlns="http://www.w3.org/2000/svg" xmlns:xlink="http://www.w3.org/1999/xlink" width="1920" zoomAndPan="magnify" viewBox="0 0 1440 809.999993" height="1080" preserveAspectRatio="xMidYMid meet" version="1.0"><defs><g><g id="id1"/></g></defs><g fill="rgb(100%, 0%, 100%)" fill-opacity="1"><g transform="translate(47.302234, 397.958961)"><g><path d="M 185.71875 -222.703125 C 185.445312 -220.828125 184.707031 -219.351562 183.5 -218.28125 C 182.300781 -217.207031 180.765625 -216.671875 178.890625 -216.671875 L 104.109375 -216.671875 C 102.773438 -216.671875 102.109375 -216 102.109375 -214.65625 L 97.28125 -175.265625 C 96.738281 -173.921875 97.273438 -173.25 98.890625 -173.25 L 137.875 -173.25 C 139.75 -173.25 141.15625 -172.710938 142.09375 -171.640625 C 143.039062 -170.578125 143.378906 -169.101562 143.109375 -167.21875 L 136.671875 -114.5625 C 135.867188 -110.539062 133.59375 -108.53125 129.84375 -108.53125 L 90.84375 -108.53125 C 89.507812 -108.53125 88.84375 -107.863281 88.84375 -106.53125 L 76.375 -6.03125 C 76.101562 -4.15625 75.363281 -2.679688 74.15625 -1.609375 C 72.957031 -0.535156 71.550781 0 69.9375 0 L 8.046875 0 C 6.429688 0 5.15625 -0.535156 4.21875 -1.609375 C 3.28125 -2.679688 2.945312 -4.15625 3.21875 -6.03125 L 36.171875 -275.359375 C 36.441406 -277.234375 37.179688 -278.707031 38.390625 -279.78125 C 39.597656 -280.851562 41.003906 -281.390625 42.609375 -281.390625 L 186.921875 -281.390625 C 188.796875 -281.390625 190.203125 -280.851562 191.140625 -279.78125 C 192.078125 -278.707031 192.414062 -277.234375 192.15625 -275.359375 Z M 185.71875 -222.703125 "/></g></g></g><g fill="rgb(100%, 0%, 100%)" fill-opacity="1"><g transform="translate(215.733962, 397.958961)"><g><path d="M 125.015625 0 C 121.265625 0 119.523438 -1.875 119.796875 -5.625 L 118.984375 -36.171875 C 119.253906 -36.710938 119.117188 -37.179688 118.578125 -37.578125 C 118.046875 -37.984375 117.515625 -38.1875 116.984375 -38.1875 L 82 -38.1875 C 80.664062 -38.1875 79.726562 -37.515625 79.1875 -36.171875 L 71.546875 -5.625 C 70.742188 -1.875 68.46875 0 64.71875 0 L 3.625 0 C -0.394531 0 -1.867188 -2.144531 -0.796875 -6.4375 L 87.625 -276.15625 C 88.695312 -279.644531 91.113281 -281.390625 94.875 -281.390625 L 166.015625 -281.390625 C 169.765625 -281.390625 171.773438 -279.644531 172.046875 -276.15625 L 194.15625 -6.4375 L 194.15625 -5.625 C 194.15625 -1.875 192.144531 0 188.125 0 Z M 95.671875 -98.078125 C 95.140625 -96.742188 95.539062 -96.078125 96.875 -96.078125 L 115.765625 -96.078125 C 116.578125 -96.078125 117.25 -96.742188 117.78125 -98.078125 L 116.171875 -172.453125 C 116.171875 -173.523438 115.832031 -173.992188 115.15625 -173.859375 C 114.488281 -173.722656 114.15625 -173.253906 114.15625 -172.453125 Z M 95.671875 -98.078125 "/></g></g></g><g fill="rgb(100%, 0%, 100%)" fill-opacity="1"><g transform="translate(422.756301, 397.958961)"><g><path d="M 149.140625 -275.359375 C 149.398438 -277.234375 150.132812 -278.707031 151.34375 -279.78125 C 152.550781 -280.851562 154.09375 -281.390625 155.96875 -281.390625 L 216.671875 -281.390625 C 218.546875 -281.390625 219.953125 -280.851562 220.890625 -279.78125 C 221.828125 -278.707031 222.160156 -277.234375 221.890625 -275.359375 L 188.53125 -6.03125 C 188.257812 -4.15625 187.585938 -2.679688 186.515625 -1.609375 C 185.441406 -0.535156 183.96875 0 182.09375 0 L 112.5625 0 C 109.34375 0 107.460938 -1.738281 106.921875 -5.21875 L 91.65625 -128.640625 C 91.65625 -129.441406 91.382812 -129.84375 90.84375 -129.84375 C 90.3125 -129.84375 90.046875 -129.441406 90.046875 -128.640625 L 75.578125 -6.03125 C 75.304688 -4.15625 74.566406 -2.679688 73.359375 -1.609375 C 72.148438 -0.535156 70.742188 0 69.140625 0 L 8.046875 0 C 6.429688 0 5.15625 -0.535156 4.21875 -1.609375 C 3.28125 -2.679688 2.945312 -4.15625 3.21875 -6.03125 L 36.171875 -275.359375 C 36.441406 -277.234375 37.179688 -278.707031 38.390625 -279.78125 C 39.597656 -280.851562 41.003906 -281.390625 42.609375 -281.390625 L 111.34375 -281.390625 C 114.5625 -281.390625 116.441406 -279.644531 116.984375 -276.15625 L 132.65625 -151.953125 C 132.65625 -151.148438 132.921875 -150.878906 133.453125 -151.140625 C 133.992188 -151.410156 134.398438 -151.816406 134.671875 -152.359375 Z M 149.140625 -275.359375 "/></g></g></g><g fill="rgb(100%, 0%, 100%)" fill-opacity="1"><g transform="translate(628.57271, 397.958961)"><g><path d="M 208.625 -281.390625 C 210.238281 -281.390625 211.515625 -280.851562 212.453125 -279.78125 C 213.390625 -278.707031 213.722656 -277.234375 213.453125 -275.359375 L 207.015625 -222.703125 C 206.753906 -220.828125 206.085938 -219.351562 205.015625 -218.28125 C 203.941406 -217.207031 202.46875 -216.671875 200.59375 -216.671875 L 153.953125 -216.671875 C 152.617188 -216.671875 151.953125 -216 151.953125 -214.65625 L 126.21875 -6.03125 C 125.957031 -4.15625 125.289062 -2.679688 124.21875 -1.609375 C 123.144531 -0.535156 121.671875 0 119.796875 0 L 58.28125 0 C 56.40625 0 55 -0.535156 54.0625 -1.609375 C 53.125 -2.679688 52.789062 -4.15625 53.0625 -6.03125 L 78.78125 -214.65625 C 78.78125 -216 78.113281 -216.671875 76.78125 -216.671875 L 31.75 -216.671875 C 29.875 -216.671875 28.46875 -217.207031 27.53125 -218.28125 C 26.59375 -219.351562 26.257812 -220.828125 26.53125 -222.703125 L 32.96875 -275.359375 C 33.226562 -277.234375 33.960938 -278.707031 35.171875 -279.78125 C 36.378906 -280.851562 37.921875 -281.390625 39.796875 -281.390625 Z M 208.625 -281.390625 "/></g></g></g><g fill="rgb(100%, 0%, 100%)" fill-opacity="1"><g transform="translate(823.133536, 397.958961)"><g><path d="M 125.015625 0 C 121.265625 0 119.523438 -1.875 119.796875 -5.625 L 118.984375 -36.171875 C 119.253906 -36.710938 119.117188 -37.179688 118.578125 -37.578125 C 118.046875 -37.984375 117.515625 -38.1875 116.984375 -38.1875 L 82 -38.1875 C 80.664062 -38.1875 79.726562 -37.515625 79.1875 -36.171875 L 71.546875 -5.625 C 70.742188 -1.875 68.46875 0 64.71875 0 L 3.625 0 C -0.394531 0 -1.867188 -2.144531 -0.796875 -6.4375 L 87.625 -276.15625 C 88.695312 -279.644531 91.113281 -281.390625 94.875 -281.390625 L 166.015625 -281.390625 C 169.765625 -281.390625 171.773438 -279.644531 172.046875 -276.15625 L 194.15625 -6.4375 L 194.15625 -5.625 C 194.15625 -1.875 192.144531 0 188.125 0 Z M 95.671875 -98.078125 C 95.140625 -96.742188 95.539062 -96.078125 96.875 -96.078125 L 115.765625 -96.078125 C 116.578125 -96.078125 117.25 -96.742188 117.78125 -98.078125 L 116.171875 -172.453125 C 116.171875 -173.523438 115.832031 -173.992188 115.15625 -173.859375 C 114.488281 -173.722656 114.15625 -173.253906 114.15625 -172.453125 Z M 95.671875 -98.078125 "/></g></g></g><g fill="rgb(100%, 0%, 100%)" fill-opacity="1"><g transform="translate(1030.155852, 397.958961)"><g><path d="M 8.046875 0 C 6.429688 0 5.15625 -0.535156 4.21875 -1.609375 C 3.28125 -2.679688 2.945312 -4.15625 3.21875 -6.03125 L 36.171875 -275.359375 C 36.441406 -277.234375 37.179688 -278.707031 38.390625 -279.78125 C 39.597656 -280.851562 41.003906 -281.390625 42.609375 -281.390625 L 104.515625 -281.390625 C 106.117188 -281.390625 107.390625 -280.851562 108.328125 -279.78125 C 109.265625 -278.707031 109.601562 -277.234375 109.34375 -275.359375 L 84.015625 -66.734375 C 83.472656 -65.390625 84.007812 -64.71875 85.625 -64.71875 L 162 -64.71875 C 163.875 -64.71875 165.28125 -64.179688 166.21875 -63.109375 C 167.15625 -62.035156 167.488281 -60.5625 167.21875 -58.6875 L 160.796875 -6.03125 C 159.992188 -2.007812 157.710938 0 153.953125 0 Z M 8.046875 0 "/></g></g></g><g fill="rgb(100%, 0%, 100%)" fill-opacity="1"><g transform="translate(1204.215454, 397.958961)"><g><path d="M 8.046875 0 C 6.429688 0 5.15625 -0.535156 4.21875 -1.609375 C 3.28125 -2.679688 2.945312 -4.15625 3.21875 -6.03125 L 36.171875 -275.359375 C 36.441406 -277.234375 37.179688 -278.707031 38.390625 -279.78125 C 39.597656 -280.851562 41.003906 -281.390625 42.609375 -281.390625 L 104.515625 -281.390625 C 106.117188 -281.390625 107.390625 -280.851562 108.328125 -279.78125 C 109.265625 -278.707031 109.601562 -277.234375 109.34375 -275.359375 L 99.6875 -194.5625 C 99.425781 -193.488281 99.5625 -192.953125 100.09375 -192.953125 C 100.625 -192.953125 101.160156 -193.351562 101.703125 -194.15625 L 145.109375 -276.5625 C 146.722656 -279.78125 149.269531 -281.390625 152.75 -281.390625 L 217.078125 -281.390625 C 220.285156 -281.390625 221.890625 -280.179688 221.890625 -277.765625 C 221.890625 -276.691406 221.488281 -275.488281 220.6875 -274.15625 L 151.140625 -155.171875 C 150.878906 -154.097656 150.75 -153.289062 150.75 -152.75 L 189.734375 -6.828125 L 189.734375 -5.21875 C 189.734375 -1.738281 187.859375 0 184.109375 0 L 119.390625 0 C 115.898438 0 113.753906 -1.609375 112.953125 -4.828125 L 92.453125 -87.625 C 92.453125 -88.4375 92.179688 -88.90625 91.640625 -89.03125 C 91.109375 -89.164062 90.710938 -88.695312 90.453125 -87.625 L 85.625 -78.78125 L 85.21875 -76.375 L 76.375 -6.03125 C 76.101562 -4.15625 75.363281 -2.679688 74.15625 -1.609375 C 72.957031 -0.535156 71.550781 0 69.9375 0 Z M 8.046875 0 "/></g></g></g><g fill="rgb(0%, 100%, 100%)" fill-opacity="1"><g transform="translate(34.380547, 405.723086)"><g><path d="M 185.71875 -222.703125 C 185.445312 -220.828125 184.707031 -219.351562 183.5 -218.28125 C 182.300781 -217.207031 180.765625 -216.671875 178.890625 -216.671875 L 104.109375 -216.671875 C 102.773438 -216.671875 102.109375 -216 102.109375 -214.65625 L 97.28125 -175.265625 C 96.738281 -173.921875 97.273438 -173.25 98.890625 -173.25 L 137.875 -173.25 C 139.75 -173.25 141.15625 -172.710938 142.09375 -171.640625 C 143.039062 -170.578125 143.378906 -169.101562 143.109375 -167.21875 L 136.671875 -114.5625 C 135.867188 -110.539062 133.59375 -108.53125 129.84375 -108.53125 L 90.84375 -108.53125 C 89.507812 -108.53125 88.84375 -107.863281 88.84375 -106.53125 L 76.375 -6.03125 C 76.101562 -4.15625 75.363281 -2.679688 74.15625 -1.609375 C 72.957031 -0.535156 71.550781 0 69.9375 0 L 8.046875 0 C 6.429688 0 5.15625 -0.535156 4.21875 -1.609375 C 3.28125 -2.679688 2.945312 -4.15625 3.21875 -6.03125 L 36.171875 -275.359375 C 36.441406 -277.234375 37.179688 -278.707031 38.390625 -279.78125 C 39.597656 -280.851562 41.003906 -281.390625 42.609375 -281.390625 L 186.921875 -281.390625 C 188.796875 -281.390625 190.203125 -280.851562 191.140625 -279.78125 C 192.078125 -278.707031 192.414062 -277.234375 192.15625 -275.359375 Z M 185.71875 -222.703125 "/></g></g></g><g fill="rgb(0%, 100%, 100%)" fill-opacity="1"><g transform="translate(202.812276, 405.723086)"><g><path d="M 125.015625 0 C 121.265625 0 119.523438 -1.875 119.796875 -5.625 L 118.984375 -36.171875 C 119.253906 -36.710938 119.117188 -37.179688 118.578125 -37.578125 C 118.046875 -37.984375 117.515625 -38.1875 116.984375 -38.1875 L 82 -38.1875 C 80.664062 -38.1875 79.726562 -37.515625 79.1875 -36.171875 L 71.546875 -5.625 C 70.742188 -1.875 68.46875 0 64.71875 0 L 3.625 0 C -0.394531 0 -1.867188 -2.144531 -0.796875 -6.4375 L 87.625 -276.15625 C 88.695312 -279.644531 91.113281 -281.390625 94.875 -281.390625 L 166.015625 -281.390625 C 169.765625 -281.390625 171.773438 -279.644531 172.046875 -276.15625 L 194.15625 -6.4375 L 194.15625 -5.625 C 194.15625 -1.875 192.144531 0 188.125 0 Z M 95.671875 -98.078125 C 95.140625 -96.742188 95.539062 -96.078125 96.875 -96.078125 L 115.765625 -96.078125 C 116.578125 -96.078125 117.25 -96.742188 117.78125 -98.078125 L 116.171875 -172.453125 C 116.171875 -173.523438 115.832031 -173.992188 115.15625 -173.859375 C 114.488281 -173.722656 114.15625 -173.253906 114.15625 -172.453125 Z M 95.671875 -98.078125 "/></g></g></g><g fill="rgb(0%, 100%, 100%)" fill-opacity="1"><g transform="translate(409.834615, 405.723086)"><g><path d="M 149.140625 -275.359375 C 149.398438 -277.234375 150.132812 -278.707031 151.34375 -279.78125 C 152.550781 -280.851562 154.09375 -281.390625 155.96875 -281.390625 L 216.671875 -281.390625 C 218.546875 -281.390625 219.953125 -280.851562 220.890625 -279.78125 C 221.828125 -278.707031 222.160156 -277.234375 221.890625 -275.359375 L 188.53125 -6.03125 C 188.257812 -4.15625 187.585938 -2.679688 186.515625 -1.609375 C 185.441406 -0.535156 183.96875 0 182.09375 0 L 112.5625 0 C 109.34375 0 107.460938 -1.738281 106.921875 -5.21875 L 91.65625 -128.640625 C 91.65625 -129.441406 91.382812 -129.84375 90.84375 -129.84375 C 90.3125 -129.84375 90.046875 -129.441406 90.046875 -128.640625 L 75.578125 -6.03125 C 75.304688 -4.15625 74.566406 -2.679688 73.359375 -1.609375 C 72.148438 -0.535156 70.742188 0 69.140625 0 L 8.046875 0 C 6.429688 0 5.15625 -0.535156 4.21875 -1.609375 C 3.28125 -2.679688 2.945312 -4.15625 3.21875 -6.03125 L 36.171875 -275.359375 C 36.441406 -277.234375 37.179688 -278.707031 38.390625 -279.78125 C 39.597656 -280.851562 41.003906 -281.390625 42.609375 -281.390625 L 111.34375 -281.390625 C 114.5625 -281.390625 116.441406 -279.644531 116.984375 -276.15625 L 132.65625 -151.953125 C 132.65625 -151.148438 132.921875 -150.878906 133.453125 -151.140625 C 133.992188 -151.410156 134.398438 -151.816406 134.671875 -152.359375 Z M 149.140625 -275.359375 "/></g></g></g><g fill="rgb(0%, 100%, 100%)" fill-opacity="1"><g transform="translate(615.651024, 405.723086)"><g><path d="M 208.625 -281.390625 C 210.238281 -281.390625 211.515625 -280.851562 212.453125 -279.78125 C 213.390625 -278.707031 213.722656 -277.234375 213.453125 -275.359375 L 207.015625 -222.703125 C 206.753906 -220.828125 206.085938 -219.351562 205.015625 -218.28125 C 203.941406 -217.207031 202.46875 -216.671875 200.59375 -216.671875 L 153.953125 -216.671875 C 152.617188 -216.671875 151.953125 -216 151.953125 -214.65625 L 126.21875 -6.03125 C 125.957031 -4.15625 125.289062 -2.679688 124.21875 -1.609375 C 123.144531 -0.535156 121.671875 0 119.796875 0 L 58.28125 0 C 56.40625 0 55 -0.535156 54.0625 -1.609375 C 53.125 -2.679688 52.789062 -4.15625 53.0625 -6.03125 L 78.78125 -214.65625 C 78.78125 -216 78.113281 -216.671875 76.78125 -216.671875 L 31.75 -216.671875 C 29.875 -216.671875 28.46875 -217.207031 27.53125 -218.28125 C 26.59375 -219.351562 26.257812 -220.828125 26.53125 -222.703125 L 32.96875 -275.359375 C 33.226562 -277.234375 33.960938 -278.707031 35.171875 -279.78125 C 36.378906 -280.851562 37.921875 -281.390625 39.796875 -281.390625 Z M 208.625 -281.390625 "/></g></g></g><g fill="rgb(0%, 100%, 100%)" fill-opacity="1"><g transform="translate(810.21185, 405.723086)"><g><path d="M 125.015625 0 C 121.265625 0 119.523438 -1.875 119.796875 -5.625 L 118.984375 -36.171875 C 119.253906 -36.710938 119.117188 -37.179688 118.578125 -37.578125 C 118.046875 -37.984375 117.515625 -38.1875 116.984375 -38.1875 L 82 -38.1875 C 80.664062 -38.1875 79.726562 -37.515625 79.1875 -36.171875 L 71.546875 -5.625 C 70.742188 -1.875 68.46875 0 64.71875 0 L 3.625 0 C -0.394531 0 -1.867188 -2.144531 -0.796875 -6.4375 L 87.625 -276.15625 C 88.695312 -279.644531 91.113281 -281.390625 94.875 -281.390625 L 166.015625 -281.390625 C 169.765625 -281.390625 171.773438 -279.644531 172.046875 -276.15625 L 194.15625 -6.4375 L 194.15625 -5.625 C 194.15625 -1.875 192.144531 0 188.125 0 Z M 95.671875 -98.078125 C 95.140625 -96.742188 95.539062 -96.078125 96.875 -96.078125 L 115.765625 -96.078125 C 116.578125 -96.078125 117.25 -96.742188 117.78125 -98.078125 L 116.171875 -172.453125 C 116.171875 -173.523438 115.832031 -173.992188 115.15625 -173.859375 C 114.488281 -173.722656 114.15625 -173.253906 114.15625 -172.453125 Z M 95.671875 -98.078125 "/></g></g></g><g fill="rgb(0%, 100%, 100%)" fill-opacity="1"><g transform="translate(1017.234166, 405.723086)"><g><path d="M 8.046875 0 C 6.429688 0 5.15625 -0.535156 4.21875 -1.609375 C 3.28125 -2.679688 2.945312 -4.15625 3.21875 -6.03125 L 36.171875 -275.359375 C 36.441406 -277.234375 37.179688 -278.707031 38.390625 -279.78125 C 39.597656 -280.851562 41.003906 -281.390625 42.609375 -281.390625 L 104.515625 -281.390625 C 106.117188 -281.390625 107.390625 -280.851562 108.328125 -279.78125 C 109.265625 -278.707031 109.601562 -277.234375 109.34375 -275.359375 L 84.015625 -66.734375 C 83.472656 -65.390625 84.007812 -64.71875 85.625 -64.71875 L 162 -64.71875 C 163.875 -64.71875 165.28125 -64.179688 166.21875 -63.109375 C 167.15625 -62.035156 167.488281 -60.5625 167.21875 -58.6875 L 160.796875 -6.03125 C 159.992188 -2.007812 157.710938 0 153.953125 0 Z M 8.046875 0 "/></g></g></g><g fill="rgb(0%, 100%, 100%)" fill-opacity="1"><g transform="translate(1191.293767, 405.723086)"><g><path d="M 8.046875 0 C 6.429688 0 5.15625 -0.535156 4.21875 -1.609375 C 3.28125 -2.679688 2.945312 -4.15625 3.21875 -6.03125 L 36.171875 -275.359375 C 36.441406 -277.234375 37.179688 -278.707031 38.390625 -279.78125 C 39.597656 -280.851562 41.003906 -281.390625 42.609375 -281.390625 L 104.515625 -281.390625 C 106.117188 -281.390625 107.390625 -280.851562 108.328125 -279.78125 C 109.265625 -278.707031 109.601562 -277.234375 109.34375 -275.359375 L 99.6875 -194.5625 C 99.425781 -193.488281 99.5625 -192.953125 100.09375 -192.953125 C 100.625 -192.953125 101.160156 -193.351562 101.703125 -194.15625 L 145.109375 -276.5625 C 146.722656 -279.78125 149.269531 -281.390625 152.75 -281.390625 L 217.078125 -281.390625 C 220.285156 -281.390625 221.890625 -280.179688 221.890625 -277.765625 C 221.890625 -276.691406 221.488281 -275.488281 220.6875 -274.15625 L 151.140625 -155.171875 C 150.878906 -154.097656 150.75 -153.289062 150.75 -152.75 L 189.734375 -6.828125 L 189.734375 -5.21875 C 189.734375 -1.738281 187.859375 0 184.109375 0 L 119.390625 0 C 115.898438 0 113.753906 -1.609375 112.953125 -4.828125 L 92.453125 -87.625 C 92.453125 -88.4375 92.179688 -88.90625 91.640625 -89.03125 C 91.109375 -89.164062 90.710938 -88.695312 90.453125 -87.625 L 85.625 -78.78125 L 85.21875 -76.375 L 76.375 -6.03125 C 76.101562 -4.15625 75.363281 -2.679688 74.15625 -1.609375 C 72.957031 -0.535156 71.550781 0 69.9375 0 Z M 8.046875 0 "/></g></g></g><g fill="rgb(100%, 0%, 0%)" fill-opacity="1"><g transform="translate(40.841391, 401.841024)"><g><path d="M 185.71875 -222.703125 C 185.445312 -220.828125 184.707031 -219.351562 183.5 -218.28125 C 182.300781 -217.207031 180.765625 -216.671875 178.890625 -216.671875 L 104.109375 -216.671875 C 102.773438 -216.671875 102.109375 -216 102.109375 -214.65625 L 97.28125 -175.265625 C 96.738281 -173.921875 97.273438 -173.25 98.890625 -173.25 L 137.875 -173.25 C 139.75 -173.25 141.15625 -172.710938 142.09375 -171.640625 C 143.039062 -170.578125 143.378906 -169.101562 143.109375 -167.21875 L 136.671875 -114.5625 C 135.867188 -110.539062 133.59375 -108.53125 129.84375 -108.53125 L 90.84375 -108.53125 C 89.507812 -108.53125 88.84375 -107.863281 88.84375 -106.53125 L 76.375 -6.03125 C 76.101562 -4.15625 75.363281 -2.679688 74.15625 -1.609375 C 72.957031 -0.535156 71.550781 0 69.9375 0 L 8.046875 0 C 6.429688 0 5.15625 -0.535156 4.21875 -1.609375 C 3.28125 -2.679688 2.945312 -4.15625 3.21875 -6.03125 L 36.171875 -275.359375 C 36.441406 -277.234375 37.179688 -278.707031 38.390625 -279.78125 C 39.597656 -280.851562 41.003906 -281.390625 42.609375 -281.390625 L 186.921875 -281.390625 C 188.796875 -281.390625 190.203125 -280.851562 191.140625 -279.78125 C 192.078125 -278.707031 192.414062 -277.234375 192.15625 -275.359375 Z M 185.71875 -222.703125 "/></g></g></g><g fill="rgb(100%, 0%, 0%)" fill-opacity="1"><g transform="translate(209.273119, 401.841024)"><g><path d="M 125.015625 0 C 121.265625 0 119.523438 -1.875 119.796875 -5.625 L 118.984375 -36.171875 C 119.253906 -36.710938 119.117188 -37.179688 118.578125 -37.578125 C 118.046875 -37.984375 117.515625 -38.1875 116.984375 -38.1875 L 82 -38.1875 C 80.664062 -38.1875 79.726562 -37.515625 79.1875 -36.171875 L 71.546875 -5.625 C 70.742188 -1.875 68.46875 0 64.71875 0 L 3.625 0 C -0.394531 0 -1.867188 -2.144531 -0.796875 -6.4375 L 87.625 -276.15625 C 88.695312 -279.644531 91.113281 -281.390625 94.875 -281.390625 L 166.015625 -281.390625 C 169.765625 -281.390625 171.773438 -279.644531 172.046875 -276.15625 L 194.15625 -6.4375 L 194.15625 -5.625 C 194.15625 -1.875 192.144531 0 188.125 0 Z M 95.671875 -98.078125 C 95.140625 -96.742188 95.539062 -96.078125 96.875 -96.078125 L 115.765625 -96.078125 C 116.578125 -96.078125 117.25 -96.742188 117.78125 -98.078125 L 116.171875 -172.453125 C 116.171875 -173.523438 115.832031 -173.992188 115.15625 -173.859375 C 114.488281 -173.722656 114.15625 -173.253906 114.15625 -172.453125 Z M 95.671875 -98.078125 "/></g></g></g><g fill="rgb(100%, 0%, 0%)" fill-opacity="1"><g transform="translate(416.295458, 401.841024)"><g><path d="M 149.140625 -275.359375 C 149.398438 -277.234375 150.132812 -278.707031 151.34375 -279.78125 C 152.550781 -280.851562 154.09375 -281.390625 155.96875 -281.390625 L 216.671875 -281.390625 C 218.546875 -281.390625 219.953125 -280.851562 220.890625 -279.78125 C 221.828125 -278.707031 222.160156 -277.234375 221.890625 -275.359375 L 188.53125 -6.03125 C 188.257812 -4.15625 187.585938 -2.679688 186.515625 -1.609375 C 185.441406 -0.535156 183.96875 0 182.09375 0 L 112.5625 0 C 109.34375 0 107.460938 -1.738281 106.921875 -5.21875 L 91.65625 -128.640625 C 91.65625 -129.441406 91.382812 -129.84375 90.84375 -129.84375 C 90.3125 -129.84375 90.046875 -129.441406 90.046875 -128.640625 L 75.578125 -6.03125 C 75.304688 -4.15625 74.566406 -2.679688 73.359375 -1.609375 C 72.148438 -0.535156 70.742188 0 69.140625 0 L 8.046875 0 C 6.429688 0 5.15625 -0.535156 4.21875 -1.609375 C 3.28125 -2.679688 2.945312 -4.15625 3.21875 -6.03125 L 36.171875 -275.359375 C 36.441406 -277.234375 37.179688 -278.707031 38.390625 -279.78125 C 39.597656 -280.851562 41.003906 -281.390625 42.609375 -281.390625 L 111.34375 -281.390625 C 114.5625 -281.390625 116.441406 -279.644531 116.984375 -276.15625 L 132.65625 -151.953125 C 132.65625 -151.148438 132.921875 -150.878906 133.453125 -151.140625 C 133.992188 -151.410156 134.398438 -151.816406 134.671875 -152.359375 Z M 149.140625 -275.359375 "/></g></g></g><g fill="rgb(100%, 0%, 0%)" fill-opacity="1"><g transform="translate(622.111867, 401.841024)"><g><path d="M 208.625 -281.390625 C 210.238281 -281.390625 211.515625 -280.851562 212.453125 -279.78125 C 213.390625 -278.707031 213.722656 -277.234375 213.453125 -275.359375 L 207.015625 -222.703125 C 206.753906 -220.828125 206.085938 -219.351562 205.015625 -218.28125 C 203.941406 -217.207031 202.46875 -216.671875 200.59375 -216.671875 L 153.953125 -216.671875 C 152.617188 -216.671875 151.953125 -216 151.953125 -214.65625 L 126.21875 -6.03125 C 125.957031 -4.15625 125.289062 -2.679688 124.21875 -1.609375 C 123.144531 -0.535156 121.671875 0 119.796875 0 L 58.28125 0 C 56.40625 0 55 -0.535156 54.0625 -1.609375 C 53.125 -2.679688 52.789062 -4.15625 53.0625 -6.03125 L 78.78125 -214.65625 C 78.78125 -216 78.113281 -216.671875 76.78125 -216.671875 L 31.75 -216.671875 C 29.875 -216.671875 28.46875 -217.207031 27.53125 -218.28125 C 26.59375 -219.351562 26.257812 -220.828125 26.53125 -222.703125 L 32.96875 -275.359375 C 33.226562 -277.234375 33.960938 -278.707031 35.171875 -279.78125 C 36.378906 -280.851562 37.921875 -281.390625 39.796875 -281.390625 Z M 208.625 -281.390625 "/></g></g></g><g fill="rgb(100%, 0%, 0%)" fill-opacity="1"><g transform="translate(816.672693, 401.841024)"><g><path d="M 125.015625 0 C 121.265625 0 119.523438 -1.875 119.796875 -5.625 L 118.984375 -36.171875 C 119.253906 -36.710938 119.117188 -37.179688 118.578125 -37.578125 C 118.046875 -37.984375 117.515625 -38.1875 116.984375 -38.1875 L 82 -38.1875 C 80.664062 -38.1875 79.726562 -37.515625 79.1875 -36.171875 L 71.546875 -5.625 C 70.742188 -1.875 68.46875 0 64.71875 0 L 3.625 0 C -0.394531 0 -1.867188 -2.144531 -0.796875 -6.4375 L 87.625 -276.15625 C 88.695312 -279.644531 91.113281 -281.390625 94.875 -281.390625 L 166.015625 -281.390625 C 169.765625 -281.390625 171.773438 -279.644531 172.046875 -276.15625 L 194.15625 -6.4375 L 194.15625 -5.625 C 194.15625 -1.875 192.144531 0 188.125 0 Z M 95.671875 -98.078125 C 95.140625 -96.742188 95.539062 -96.078125 96.875 -96.078125 L 115.765625 -96.078125 C 116.578125 -96.078125 117.25 -96.742188 117.78125 -98.078125 L 116.171875 -172.453125 C 116.171875 -173.523438 115.832031 -173.992188 115.15625 -173.859375 C 114.488281 -173.722656 114.15625 -173.253906 114.15625 -172.453125 Z M 95.671875 -98.078125 "/></g></g></g><g fill="rgb(100%, 0%, 0%)" fill-opacity="1"><g transform="translate(1023.695009, 401.841024)"><g><path d="M 8.046875 0 C 6.429688 0 5.15625 -0.535156 4.21875 -1.609375 C 3.28125 -2.679688 2.945312 -4.15625 3.21875 -6.03125 L 36.171875 -275.359375 C 36.441406 -277.234375 37.179688 -278.707031 38.390625 -279.78125 C 39.597656 -280.851562 41.003906 -281.390625 42.609375 -281.390625 L 104.515625 -281.390625 C 106.117188 -281.390625 107.390625 -280.851562 108.328125 -279.78125 C 109.265625 -278.707031 109.601562 -277.234375 109.34375 -275.359375 L 84.015625 -66.734375 C 83.472656 -65.390625 84.007812 -64.71875 85.625 -64.71875 L 162 -64.71875 C 163.875 -64.71875 165.28125 -64.179688 166.21875 -63.109375 C 167.15625 -62.035156 167.488281 -60.5625 167.21875 -58.6875 L 160.796875 -6.03125 C 159.992188 -2.007812 157.710938 0 153.953125 0 Z M 8.046875 0 "/></g></g></g><g fill="rgb(100%, 0%, 0%)" fill-opacity="1"><g transform="translate(1197.754611, 401.841024)"><g><path d="M 8.046875 0 C 6.429688 0 5.15625 -0.535156 4.21875 -1.609375 C 3.28125 -2.679688 2.945312 -4.15625 3.21875 -6.03125 L 36.171875 -275.359375 C 36.441406 -277.234375 37.179688 -278.707031 38.390625 -279.78125 C 39.597656 -280.851562 41.003906 -281.390625 42.609375 -281.390625 L 104.515625 -281.390625 C 106.117188 -281.390625 107.390625 -280.851562 108.328125 -279.78125 C 109.265625 -278.707031 109.601562 -277.234375 109.34375 -275.359375 L 99.6875 -194.5625 C 99.425781 -193.488281 99.5625 -192.953125 100.09375 -192.953125 C 100.625 -192.953125 101.160156 -193.351562 101.703125 -194.15625 L 145.109375 -276.5625 C 146.722656 -279.78125 149.269531 -281.390625 152.75 -281.390625 L 217.078125 -281.390625 C 220.285156 -281.390625 221.890625 -280.179688 221.890625 -277.765625 C 221.890625 -276.691406 221.488281 -275.488281 220.6875 -274.15625 L 151.140625 -155.171875 C 150.878906 -154.097656 150.75 -153.289062 150.75 -152.75 L 189.734375 -6.828125 L 189.734375 -5.21875 C 189.734375 -1.738281 187.859375 0 184.109375 0 L 119.390625 0 C 115.898438 0 113.753906 -1.609375 112.953125 -4.828125 L 92.453125 -87.625 C 92.453125 -88.4375 92.179688 -88.90625 91.640625 -89.03125 C 91.109375 -89.164062 90.710938 -88.695312 90.453125 -87.625 L 85.625 -78.78125 L 85.21875 -76.375 L 76.375 -6.03125 C 76.101562 -4.15625 75.363281 -2.679688 74.15625 -1.609375 C 72.957031 -0.535156 71.550781 0 69.9375 0 Z M 8.046875 0 "/></g></g></g><g fill="rgb(100%, 0%, 100%)" fill-opacity="1"><g transform="translate(165.092441, 719.400665)"><g><path d="M 83.609375 3.21875 C 60.566406 3.21875 42.34375 -2.742188 28.9375 -14.671875 C 15.539062 -26.597656 8.84375 -42.476562 8.84375 -62.3125 C 8.84375 -64.1875 9.109375 -67.535156 9.640625 -72.359375 L 11.25 -84.8125 C 11.519531 -86.6875 12.257812 -88.160156 13.46875 -89.234375 C 14.675781 -90.304688 16.082031 -90.84375 17.6875 -90.84375 L 78.78125 -90.84375 C 80.394531 -90.84375 81.671875 -90.304688 82.609375 -89.234375 C 83.546875 -88.160156 83.878906 -86.6875 83.609375 -84.8125 L 82.8125 -75.96875 C 82.269531 -71.6875 82.800781 -68.203125 84.40625 -65.515625 C 86.019531 -62.835938 88.4375 -61.5 91.65625 -61.5 C 95.132812 -61.5 98.078125 -62.972656 100.484375 -65.921875 C 102.898438 -68.867188 104.109375 -72.488281 104.109375 -76.78125 C 104.109375 -80.800781 102.164062 -84.953125 98.28125 -89.234375 C 94.394531 -93.523438 86.957031 -100.09375 75.96875 -108.9375 C 65.25 -117.78125 56.40625 -125.617188 49.4375 -132.453125 C 42.476562 -139.285156 36.453125 -147.726562 31.359375 -157.78125 C 26.265625 -167.832031 23.71875 -179.289062 23.71875 -192.15625 C 23.71875 -194.5625 23.984375 -198.710938 24.515625 -204.609375 C 27.460938 -228.460938 37.378906 -247.757812 54.265625 -262.5 C 71.148438 -277.238281 92.1875 -284.609375 117.375 -284.609375 C 140.425781 -284.609375 158.582031 -278.441406 171.84375 -266.109375 C 185.113281 -253.785156 191.75 -237.171875 191.75 -216.265625 C 191.75 -213.859375 191.476562 -209.972656 190.9375 -204.609375 L 189.734375 -195.765625 C 189.460938 -193.890625 188.722656 -192.414062 187.515625 -191.34375 C 186.316406 -190.269531 184.914062 -189.734375 183.3125 -189.734375 L 122.609375 -189.734375 C 120.992188 -189.734375 119.71875 -190.269531 118.78125 -191.34375 C 117.84375 -192.414062 117.507812 -193.890625 117.78125 -195.765625 L 118.984375 -206.21875 C 119.253906 -210.238281 118.515625 -213.519531 116.765625 -216.0625 C 115.023438 -218.613281 112.550781 -219.890625 109.34375 -219.890625 C 105.59375 -219.890625 102.507812 -218.28125 100.09375 -215.0625 C 97.675781 -211.84375 96.46875 -207.554688 96.46875 -202.203125 C 96.46875 -197.640625 98.34375 -192.945312 102.09375 -188.125 C 105.851562 -183.300781 112.820312 -176.601562 123 -168.03125 C 136.675781 -156.507812 147.128906 -147.195312 154.359375 -140.09375 C 161.597656 -132.988281 167.289062 -125.210938 171.4375 -116.765625 C 175.59375 -108.328125 177.671875 -98.75 177.671875 -88.03125 C 177.671875 -85.882812 177.40625 -82.132812 176.875 -76.78125 C 173.65625 -52.394531 163.535156 -32.960938 146.515625 -18.484375 C 129.503906 -4.015625 108.535156 3.21875 83.609375 3.21875 Z M 83.609375 3.21875 "/></g></g></g><g fill="rgb(100%, 0%, 100%)" fill-opacity="1"><g transform="translate(345.583723, 719.400665)"><g><path d="M 129.84375 -281.390625 C 151.28125 -281.390625 168.226562 -274.488281 180.6875 -260.6875 C 193.15625 -246.882812 199.390625 -228.59375 199.390625 -205.8125 C 199.390625 -199.382812 199.117188 -194.425781 198.578125 -190.9375 C 196.429688 -173.789062 191.40625 -158.648438 183.5 -145.515625 C 175.59375 -132.390625 165.410156 -122.273438 152.953125 -115.171875 C 140.492188 -108.066406 126.757812 -104.515625 111.75 -104.515625 L 89.640625 -104.515625 C 88.296875 -104.515625 87.625 -103.84375 87.625 -102.5 L 75.578125 -6.03125 C 75.304688 -4.15625 74.566406 -2.679688 73.359375 -1.609375 C 72.148438 -0.535156 70.742188 0 69.140625 0 L 7.234375 0 C 5.628906 0 4.359375 -0.535156 3.421875 -1.609375 C 2.484375 -2.679688 2.144531 -4.15625 2.40625 -6.03125 L 35.375 -275.359375 C 35.644531 -277.234375 36.378906 -278.707031 37.578125 -279.78125 C 38.785156 -280.851562 40.195312 -281.390625 41.8125 -281.390625 Z M 102.109375 -162.796875 C 108.003906 -162.796875 113.023438 -165.003906 117.171875 -169.421875 C 121.328125 -173.847656 123.941406 -180.484375 125.015625 -189.328125 C 125.285156 -190.941406 125.421875 -193.222656 125.421875 -196.171875 C 125.421875 -202.867188 123.945312 -207.957031 121 -211.4375 C 118.050781 -214.925781 114.03125 -216.671875 108.9375 -216.671875 L 103.3125 -216.671875 C 101.96875 -216.671875 101.296875 -216 101.296875 -214.65625 L 95.265625 -164.8125 C 94.734375 -163.46875 95.269531 -162.796875 96.875 -162.796875 Z M 102.109375 -162.796875 "/></g></g></g><g fill="rgb(100%, 0%, 100%)" fill-opacity="1"><g transform="translate(533.310792, 719.400665)"><g><path d="M 86.03125 3.21875 C 62.175781 3.21875 43.414062 -3.28125 29.75 -16.28125 C 16.082031 -29.28125 9.25 -46.898438 9.25 -69.140625 C 9.25 -71.816406 9.515625 -76.375 10.046875 -82.8125 L 24.515625 -198.578125 C 27.734375 -224.835938 38.117188 -245.738281 55.671875 -261.28125 C 73.222656 -276.832031 95.132812 -284.609375 121.40625 -284.609375 C 144.988281 -284.609375 163.675781 -278.109375 177.46875 -265.109375 C 191.269531 -252.109375 198.171875 -234.488281 198.171875 -212.25 C 198.171875 -209.570312 197.90625 -205.015625 197.375 -198.578125 L 183.3125 -82.8125 C 180.09375 -56.550781 169.640625 -35.644531 151.953125 -20.09375 C 134.265625 -4.550781 112.289062 3.21875 86.03125 3.21875 Z M 94.0625 -61.5 C 98.082031 -61.5 101.5 -63.109375 104.3125 -66.328125 C 107.125 -69.546875 108.929688 -73.96875 109.734375 -79.59375 L 124.609375 -201.796875 C 125.148438 -207.421875 124.484375 -211.84375 122.609375 -215.0625 C 120.734375 -218.28125 117.785156 -219.890625 113.765625 -219.890625 C 109.472656 -219.890625 105.921875 -218.28125 103.109375 -215.0625 C 100.296875 -211.84375 98.617188 -207.421875 98.078125 -201.796875 L 83.203125 -79.59375 C 82.941406 -78.519531 82.8125 -77.046875 82.8125 -75.171875 C 82.8125 -70.878906 83.816406 -67.523438 85.828125 -65.109375 C 87.835938 -62.703125 90.582031 -61.5 94.0625 -61.5 Z M 94.0625 -61.5 "/></g></g></g><g fill="rgb(100%, 0%, 100%)" fill-opacity="1"><g transform="translate(721.841759, 719.400665)"><g><path d="M 108.9375 0 C 105.71875 0 103.84375 -1.738281 103.3125 -5.21875 L 91.65625 -106.53125 C 91.65625 -107.601562 91.253906 -108.140625 90.453125 -108.140625 C 89.378906 -108.140625 88.84375 -107.46875 88.84375 -106.125 L 76.375 -6.03125 C 76.101562 -4.15625 75.363281 -2.679688 74.15625 -1.609375 C 72.957031 -0.535156 71.550781 0 69.9375 0 L 8.046875 0 C 6.429688 0 5.15625 -0.535156 4.21875 -1.609375 C 3.28125 -2.679688 2.945312 -4.15625 3.21875 -6.03125 L 36.171875 -275.359375 C 36.441406 -277.234375 37.179688 -278.707031 38.390625 -279.78125 C 39.597656 -280.851562 41.003906 -281.390625 42.609375 -281.390625 L 130.640625 -281.390625 C 152.078125 -281.390625 169.023438 -274.554688 181.484375 -260.890625 C 193.953125 -247.222656 200.1875 -229.132812 200.1875 -206.625 C 200.1875 -200.1875 199.921875 -195.226562 199.390625 -191.75 C 197.515625 -177.007812 193.359375 -163.8125 186.921875 -152.15625 C 180.492188 -140.5 172.1875 -131.050781 162 -123.8125 C 160.65625 -123.007812 160.253906 -122.070312 160.796875 -121 L 178.078125 -6.828125 L 178.078125 -5.21875 C 178.078125 -3.613281 177.539062 -2.34375 176.46875 -1.40625 C 175.394531 -0.46875 174.054688 0 172.453125 0 Z M 104.109375 -216.671875 C 102.773438 -216.671875 102.109375 -216 102.109375 -214.65625 L 96.078125 -167.625 C 96.078125 -166.289062 96.742188 -165.625 98.078125 -165.625 L 103.3125 -165.625 C 109.738281 -165.625 115.160156 -168.4375 119.578125 -174.0625 C 124.003906 -179.6875 126.21875 -187.457031 126.21875 -197.375 C 126.21875 -203.539062 124.742188 -208.296875 121.796875 -211.640625 C 118.847656 -214.992188 114.828125 -216.671875 109.734375 -216.671875 Z M 104.109375 -216.671875 "/></g></g></g><g fill="rgb(100%, 0%, 100%)" fill-opacity="1"><g transform="translate(912.784656, 719.400665)"><g><path d="M 208.625 -281.390625 C 210.238281 -281.390625 211.515625 -280.851562 212.453125 -279.78125 C 213.390625 -278.707031 213.722656 -277.234375 213.453125 -275.359375 L 207.015625 -222.703125 C 206.753906 -220.828125 206.085938 -219.351562 205.015625 -218.28125 C 203.941406 -217.207031 202.46875 -216.671875 200.59375 -216.671875 L 153.953125 -216.671875 C 152.617188 -216.671875 151.953125 -216 151.953125 -214.65625 L 126.21875 -6.03125 C 125.957031 -4.15625 125.289062 -2.679688 124.21875 -1.609375 C 123.144531 -0.535156 121.671875 0 119.796875 0 L 58.28125 0 C 56.40625 0 55 -0.535156 54.0625 -1.609375 C 53.125 -2.679688 52.789062 -4.15625 53.0625 -6.03125 L 78.78125 -214.65625 C 78.78125 -216 78.113281 -216.671875 76.78125 -216.671875 L 31.75 -216.671875 C 29.875 -216.671875 28.46875 -217.207031 27.53125 -218.28125 C 26.59375 -219.351562 26.257812 -220.828125 26.53125 -222.703125 L 32.96875 -275.359375 C 33.226562 -277.234375 33.960938 -278.707031 35.171875 -279.78125 C 36.378906 -280.851562 37.921875 -281.390625 39.796875 -281.390625 Z M 208.625 -281.390625 "/></g></g></g><g fill="rgb(100%, 0%, 100%)" fill-opacity="1"><g transform="translate(1107.345528, 719.400665)"><g><path d="M 83.609375 3.21875 C 60.566406 3.21875 42.34375 -2.742188 28.9375 -14.671875 C 15.539062 -26.597656 8.84375 -42.476562 8.84375 -62.3125 C 8.84375 -64.1875 9.109375 -67.535156 9.640625 -72.359375 L 11.25 -84.8125 C 11.519531 -86.6875 12.257812 -88.160156 13.46875 -89.234375 C 14.675781 -90.304688 16.082031 -90.84375 17.6875 -90.84375 L 78.78125 -90.84375 C 80.394531 -90.84375 81.671875 -90.304688 82.609375 -89.234375 C 83.546875 -88.160156 83.878906 -86.6875 83.609375 -84.8125 L 82.8125 -75.96875 C 82.269531 -71.6875 82.800781 -68.203125 84.40625 -65.515625 C 86.019531 -62.835938 88.4375 -61.5 91.65625 -61.5 C 95.132812 -61.5 98.078125 -62.972656 100.484375 -65.921875 C 102.898438 -68.867188 104.109375 -72.488281 104.109375 -76.78125 C 104.109375 -80.800781 102.164062 -84.953125 98.28125 -89.234375 C 94.394531 -93.523438 86.957031 -100.09375 75.96875 -108.9375 C 65.25 -117.78125 56.40625 -125.617188 49.4375 -132.453125 C 42.476562 -139.285156 36.453125 -147.726562 31.359375 -157.78125 C 26.265625 -167.832031 23.71875 -179.289062 23.71875 -192.15625 C 23.71875 -194.5625 23.984375 -198.710938 24.515625 -204.609375 C 27.460938 -228.460938 37.378906 -247.757812 54.265625 -262.5 C 71.148438 -277.238281 92.1875 -284.609375 117.375 -284.609375 C 140.425781 -284.609375 158.582031 -278.441406 171.84375 -266.109375 C 185.113281 -253.785156 191.75 -237.171875 191.75 -216.265625 C 191.75 -213.859375 191.476562 -209.972656 190.9375 -204.609375 L 189.734375 -195.765625 C 189.460938 -193.890625 188.722656 -192.414062 187.515625 -191.34375 C 186.316406 -190.269531 184.914062 -189.734375 183.3125 -189.734375 L 122.609375 -189.734375 C 120.992188 -189.734375 119.71875 -190.269531 118.78125 -191.34375 C 117.84375 -192.414062 117.507812 -193.890625 117.78125 -195.765625 L 118.984375 -206.21875 C 119.253906 -210.238281 118.515625 -213.519531 116.765625 -216.0625 C 115.023438 -218.613281 112.550781 -219.890625 109.34375 -219.890625 C 105.59375 -219.890625 102.507812 -218.28125 100.09375 -215.0625 C 97.675781 -211.84375 96.46875 -207.554688 96.46875 -202.203125 C 96.46875 -197.640625 98.34375 -192.945312 102.09375 -188.125 C 105.851562 -183.300781 112.820312 -176.601562 123 -168.03125 C 136.675781 -156.507812 147.128906 -147.195312 154.359375 -140.09375 C 161.597656 -132.988281 167.289062 -125.210938 171.4375 -116.765625 C 175.59375 -108.328125 177.671875 -98.75 177.671875 -88.03125 C 177.671875 -85.882812 177.40625 -82.132812 176.875 -76.78125 C 173.65625 -52.394531 163.535156 -32.960938 146.515625 -18.484375 C 129.503906 -4.015625 108.535156 3.21875 83.609375 3.21875 Z M 83.609375 3.21875 "/></g></g></g><g fill="rgb(0%, 100%, 100%)" fill-opacity="1"><g transform="translate(152.170755, 727.164789)"><g><path d="M 83.609375 3.21875 C 60.566406 3.21875 42.34375 -2.742188 28.9375 -14.671875 C 15.539062 -26.597656 8.84375 -42.476562 8.84375 -62.3125 C 8.84375 -64.1875 9.109375 -67.535156 9.640625 -72.359375 L 11.25 -84.8125 C 11.519531 -86.6875 12.257812 -88.160156 13.46875 -89.234375 C 14.675781 -90.304688 16.082031 -90.84375 17.6875 -90.84375 L 78.78125 -90.84375 C 80.394531 -90.84375 81.671875 -90.304688 82.609375 -89.234375 C 83.546875 -88.160156 83.878906 -86.6875 83.609375 -84.8125 L 82.8125 -75.96875 C 82.269531 -71.6875 82.800781 -68.203125 84.40625 -65.515625 C 86.019531 -62.835938 88.4375 -61.5 91.65625 -61.5 C 95.132812 -61.5 98.078125 -62.972656 100.484375 -65.921875 C 102.898438 -68.867188 104.109375 -72.488281 104.109375 -76.78125 C 104.109375 -80.800781 102.164062 -84.953125 98.28125 -89.234375 C 94.394531 -93.523438 86.957031 -100.09375 75.96875 -108.9375 C 65.25 -117.78125 56.40625 -125.617188 49.4375 -132.453125 C 42.476562 -139.285156 36.453125 -147.726562 31.359375 -157.78125 C 26.265625 -167.832031 23.71875 -179.289062 23.71875 -192.15625 C 23.71875 -194.5625 23.984375 -198.710938 24.515625 -204.609375 C 27.460938 -228.460938 37.378906 -247.757812 54.265625 -262.5 C 71.148438 -277.238281 92.1875 -284.609375 117.375 -284.609375 C 140.425781 -284.609375 158.582031 -278.441406 171.84375 -266.109375 C 185.113281 -253.785156 191.75 -237.171875 191.75 -216.265625 C 191.75 -213.859375 191.476562 -209.972656 190.9375 -204.609375 L 189.734375 -195.765625 C 189.460938 -193.890625 188.722656 -192.414062 187.515625 -191.34375 C 186.316406 -190.269531 184.914062 -189.734375 183.3125 -189.734375 L 122.609375 -189.734375 C 120.992188 -189.734375 119.71875 -190.269531 118.78125 -191.34375 C 117.84375 -192.414062 117.507812 -193.890625 117.78125 -195.765625 L 118.984375 -206.21875 C 119.253906 -210.238281 118.515625 -213.519531 116.765625 -216.0625 C 115.023438 -218.613281 112.550781 -219.890625 109.34375 -219.890625 C 105.59375 -219.890625 102.507812 -218.28125 100.09375 -215.0625 C 97.675781 -211.84375 96.46875 -207.554688 96.46875 -202.203125 C 96.46875 -197.640625 98.34375 -192.945312 102.09375 -188.125 C 105.851562 -183.300781 112.820312 -176.601562 123 -168.03125 C 136.675781 -156.507812 147.128906 -147.195312 154.359375 -140.09375 C 161.597656 -132.988281 167.289062 -125.210938 171.4375 -116.765625 C 175.59375 -108.328125 177.671875 -98.75 177.671875 -88.03125 C 177.671875 -85.882812 177.40625 -82.132812 176.875 -76.78125 C 173.65625 -52.394531 163.535156 -32.960938 146.515625 -18.484375 C 129.503906 -4.015625 108.535156 3.21875 83.609375 3.21875 Z M 83.609375 3.21875 "/></g></g></g><g fill="rgb(0%, 100%, 100%)" fill-opacity="1"><g transform="translate(332.662036, 727.164789)"><g><path d="M 129.84375 -281.390625 C 151.28125 -281.390625 168.226562 -274.488281 180.6875 -260.6875 C 193.15625 -246.882812 199.390625 -228.59375 199.390625 -205.8125 C 199.390625 -199.382812 199.117188 -194.425781 198.578125 -190.9375 C 196.429688 -173.789062 191.40625 -158.648438 183.5 -145.515625 C 175.59375 -132.390625 165.410156 -122.273438 152.953125 -115.171875 C 140.492188 -108.066406 126.757812 -104.515625 111.75 -104.515625 L 89.640625 -104.515625 C 88.296875 -104.515625 87.625 -103.84375 87.625 -102.5 L 75.578125 -6.03125 C 75.304688 -4.15625 74.566406 -2.679688 73.359375 -1.609375 C 72.148438 -0.535156 70.742188 0 69.140625 0 L 7.234375 0 C 5.628906 0 4.359375 -0.535156 3.421875 -1.609375 C 2.484375 -2.679688 2.144531 -4.15625 2.40625 -6.03125 L 35.375 -275.359375 C 35.644531 -277.234375 36.378906 -278.707031 37.578125 -279.78125 C 38.785156 -280.851562 40.195312 -281.390625 41.8125 -281.390625 Z M 102.109375 -162.796875 C 108.003906 -162.796875 113.023438 -165.003906 117.171875 -169.421875 C 121.328125 -173.847656 123.941406 -180.484375 125.015625 -189.328125 C 125.285156 -190.941406 125.421875 -193.222656 125.421875 -196.171875 C 125.421875 -202.867188 123.945312 -207.957031 121 -211.4375 C 118.050781 -214.925781 114.03125 -216.671875 108.9375 -216.671875 L 103.3125 -216.671875 C 101.96875 -216.671875 101.296875 -216 101.296875 -214.65625 L 95.265625 -164.8125 C 94.734375 -163.46875 95.269531 -162.796875 96.875 -162.796875 Z M 102.109375 -162.796875 "/></g></g></g><g fill="rgb(0%, 100%, 100%)" fill-opacity="1"><g transform="translate(520.389105, 727.164789)"><g><path d="M 86.03125 3.21875 C 62.175781 3.21875 43.414062 -3.28125 29.75 -16.28125 C 16.082031 -29.28125 9.25 -46.898438 9.25 -69.140625 C 9.25 -71.816406 9.515625 -76.375 10.046875 -82.8125 L 24.515625 -198.578125 C 27.734375 -224.835938 38.117188 -245.738281 55.671875 -261.28125 C 73.222656 -276.832031 95.132812 -284.609375 121.40625 -284.609375 C 144.988281 -284.609375 163.675781 -278.109375 177.46875 -265.109375 C 191.269531 -252.109375 198.171875 -234.488281 198.171875 -212.25 C 198.171875 -209.570312 197.90625 -205.015625 197.375 -198.578125 L 183.3125 -82.8125 C 180.09375 -56.550781 169.640625 -35.644531 151.953125 -20.09375 C 134.265625 -4.550781 112.289062 3.21875 86.03125 3.21875 Z M 94.0625 -61.5 C 98.082031 -61.5 101.5 -63.109375 104.3125 -66.328125 C 107.125 -69.546875 108.929688 -73.96875 109.734375 -79.59375 L 124.609375 -201.796875 C 125.148438 -207.421875 124.484375 -211.84375 122.609375 -215.0625 C 120.734375 -218.28125 117.785156 -219.890625 113.765625 -219.890625 C 109.472656 -219.890625 105.921875 -218.28125 103.109375 -215.0625 C 100.296875 -211.84375 98.617188 -207.421875 98.078125 -201.796875 L 83.203125 -79.59375 C 82.941406 -78.519531 82.8125 -77.046875 82.8125 -75.171875 C 82.8125 -70.878906 83.816406 -67.523438 85.828125 -65.109375 C 87.835938 -62.703125 90.582031 -61.5 94.0625 -61.5 Z M 94.0625 -61.5 "/></g></g></g><g fill="rgb(0%, 100%, 100%)" fill-opacity="1"><g transform="translate(708.920072, 727.164789)"><g><path d="M 108.9375 0 C 105.71875 0 103.84375 -1.738281 103.3125 -5.21875 L 91.65625 -106.53125 C 91.65625 -107.601562 91.253906 -108.140625 90.453125 -108.140625 C 89.378906 -108.140625 88.84375 -107.46875 88.84375 -106.125 L 76.375 -6.03125 C 76.101562 -4.15625 75.363281 -2.679688 74.15625 -1.609375 C 72.957031 -0.535156 71.550781 0 69.9375 0 L 8.046875 0 C 6.429688 0 5.15625 -0.535156 4.21875 -1.609375 C 3.28125 -2.679688 2.945312 -4.15625 3.21875 -6.03125 L 36.171875 -275.359375 C 36.441406 -277.234375 37.179688 -278.707031 38.390625 -279.78125 C 39.597656 -280.851562 41.003906 -281.390625 42.609375 -281.390625 L 130.640625 -281.390625 C 152.078125 -281.390625 169.023438 -274.554688 181.484375 -260.890625 C 193.953125 -247.222656 200.1875 -229.132812 200.1875 -206.625 C 200.1875 -200.1875 199.921875 -195.226562 199.390625 -191.75 C 197.515625 -177.007812 193.359375 -163.8125 186.921875 -152.15625 C 180.492188 -140.5 172.1875 -131.050781 162 -123.8125 C 160.65625 -123.007812 160.253906 -122.070312 160.796875 -121 L 178.078125 -6.828125 L 178.078125 -5.21875 C 178.078125 -3.613281 177.539062 -2.34375 176.46875 -1.40625 C 175.394531 -0.46875 174.054688 0 172.453125 0 Z M 104.109375 -216.671875 C 102.773438 -216.671875 102.109375 -216 102.109375 -214.65625 L 96.078125 -167.625 C 96.078125 -166.289062 96.742188 -165.625 98.078125 -165.625 L 103.3125 -165.625 C 109.738281 -165.625 115.160156 -168.4375 119.578125 -174.0625 C 124.003906 -179.6875 126.21875 -187.457031 126.21875 -197.375 C 126.21875 -203.539062 124.742188 -208.296875 121.796875 -211.640625 C 118.847656 -214.992188 114.828125 -216.671875 109.734375 -216.671875 Z M 104.109375 -216.671875 "/></g></g></g><g fill="rgb(0%, 100%, 100%)" fill-opacity="1"><g transform="translate(899.86297, 727.164789)"><g><path d="M 208.625 -281.390625 C 210.238281 -281.390625 211.515625 -280.851562 212.453125 -279.78125 C 213.390625 -278.707031 213.722656 -277.234375 213.453125 -275.359375 L 207.015625 -222.703125 C 206.753906 -220.828125 206.085938 -219.351562 205.015625 -218.28125 C 203.941406 -217.207031 202.46875 -216.671875 200.59375 -216.671875 L 153.953125 -216.671875 C 152.617188 -216.671875 151.953125 -216 151.953125 -214.65625 L 126.21875 -6.03125 C 125.957031 -4.15625 125.289062 -2.679688 124.21875 -1.609375 C 123.144531 -0.535156 121.671875 0 119.796875 0 L 58.28125 0 C 56.40625 0 55 -0.535156 54.0625 -1.609375 C 53.125 -2.679688 52.789062 -4.15625 53.0625 -6.03125 L 78.78125 -214.65625 C 78.78125 -216 78.113281 -216.671875 76.78125 -216.671875 L 31.75 -216.671875 C 29.875 -216.671875 28.46875 -217.207031 27.53125 -218.28125 C 26.59375 -219.351562 26.257812 -220.828125 26.53125 -222.703125 L 32.96875 -275.359375 C 33.226562 -277.234375 33.960938 -278.707031 35.171875 -279.78125 C 36.378906 -280.851562 37.921875 -281.390625 39.796875 -281.390625 Z M 208.625 -281.390625 "/></g></g></g><g fill="rgb(0%, 100%, 100%)" fill-opacity="1"><g transform="translate(1094.423842, 727.164789)"><g><path d="M 83.609375 3.21875 C 60.566406 3.21875 42.34375 -2.742188 28.9375 -14.671875 C 15.539062 -26.597656 8.84375 -42.476562 8.84375 -62.3125 C 8.84375 -64.1875 9.109375 -67.535156 9.640625 -72.359375 L 11.25 -84.8125 C 11.519531 -86.6875 12.257812 -88.160156 13.46875 -89.234375 C 14.675781 -90.304688 16.082031 -90.84375 17.6875 -90.84375 L 78.78125 -90.84375 C 80.394531 -90.84375 81.671875 -90.304688 82.609375 -89.234375 C 83.546875 -88.160156 83.878906 -86.6875 83.609375 -84.8125 L 82.8125 -75.96875 C 82.269531 -71.6875 82.800781 -68.203125 84.40625 -65.515625 C 86.019531 -62.835938 88.4375 -61.5 91.65625 -61.5 C 95.132812 -61.5 98.078125 -62.972656 100.484375 -65.921875 C 102.898438 -68.867188 104.109375 -72.488281 104.109375 -76.78125 C 104.109375 -80.800781 102.164062 -84.953125 98.28125 -89.234375 C 94.394531 -93.523438 86.957031 -100.09375 75.96875 -108.9375 C 65.25 -117.78125 56.40625 -125.617188 49.4375 -132.453125 C 42.476562 -139.285156 36.453125 -147.726562 31.359375 -157.78125 C 26.265625 -167.832031 23.71875 -179.289062 23.71875 -192.15625 C 23.71875 -194.5625 23.984375 -198.710938 24.515625 -204.609375 C 27.460938 -228.460938 37.378906 -247.757812 54.265625 -262.5 C 71.148438 -277.238281 92.1875 -284.609375 117.375 -284.609375 C 140.425781 -284.609375 158.582031 -278.441406 171.84375 -266.109375 C 185.113281 -253.785156 191.75 -237.171875 191.75 -216.265625 C 191.75 -213.859375 191.476562 -209.972656 190.9375 -204.609375 L 189.734375 -195.765625 C 189.460938 -193.890625 188.722656 -192.414062 187.515625 -191.34375 C 186.316406 -190.269531 184.914062 -189.734375 183.3125 -189.734375 L 122.609375 -189.734375 C 120.992188 -189.734375 119.71875 -190.269531 118.78125 -191.34375 C 117.84375 -192.414062 117.507812 -193.890625 117.78125 -195.765625 L 118.984375 -206.21875 C 119.253906 -210.238281 118.515625 -213.519531 116.765625 -216.0625 C 115.023438 -218.613281 112.550781 -219.890625 109.34375 -219.890625 C 105.59375 -219.890625 102.507812 -218.28125 100.09375 -215.0625 C 97.675781 -211.84375 96.46875 -207.554688 96.46875 -202.203125 C 96.46875 -197.640625 98.34375 -192.945312 102.09375 -188.125 C 105.851562 -183.300781 112.820312 -176.601562 123 -168.03125 C 136.675781 -156.507812 147.128906 -147.195312 154.359375 -140.09375 C 161.597656 -132.988281 167.289062 -125.210938 171.4375 -116.765625 C 175.59375 -108.328125 177.671875 -98.75 177.671875 -88.03125 C 177.671875 -85.882812 177.40625 -82.132812 176.875 -76.78125 C 173.65625 -52.394531 163.535156 -32.960938 146.515625 -18.484375 C 129.503906 -4.015625 108.535156 3.21875 83.609375 3.21875 Z M 83.609375 3.21875 "/></g></g></g><g fill="rgb(0%, 0%, 0%)" fill-opacity="1"><g transform="translate(158.631598, 723.282727)"><g><path d="M 83.609375 3.21875 C 60.566406 3.21875 42.34375 -2.742188 28.9375 -14.671875 C 15.539062 -26.597656 8.84375 -42.476562 8.84375 -62.3125 C 8.84375 -64.1875 9.109375 -67.535156 9.640625 -72.359375 L 11.25 -84.8125 C 11.519531 -86.6875 12.257812 -88.160156 13.46875 -89.234375 C 14.675781 -90.304688 16.082031 -90.84375 17.6875 -90.84375 L 78.78125 -90.84375 C 80.394531 -90.84375 81.671875 -90.304688 82.609375 -89.234375 C 83.546875 -88.160156 83.878906 -86.6875 83.609375 -84.8125 L 82.8125 -75.96875 C 82.269531 -71.6875 82.800781 -68.203125 84.40625 -65.515625 C 86.019531 -62.835938 88.4375 -61.5 91.65625 -61.5 C 95.132812 -61.5 98.078125 -62.972656 100.484375 -65.921875 C 102.898438 -68.867188 104.109375 -72.488281 104.109375 -76.78125 C 104.109375 -80.800781 102.164062 -84.953125 98.28125 -89.234375 C 94.394531 -93.523438 86.957031 -100.09375 75.96875 -108.9375 C 65.25 -117.78125 56.40625 -125.617188 49.4375 -132.453125 C 42.476562 -139.285156 36.453125 -147.726562 31.359375 -157.78125 C 26.265625 -167.832031 23.71875 -179.289062 23.71875 -192.15625 C 23.71875 -194.5625 23.984375 -198.710938 24.515625 -204.609375 C 27.460938 -228.460938 37.378906 -247.757812 54.265625 -262.5 C 71.148438 -277.238281 92.1875 -284.609375 117.375 -284.609375 C 140.425781 -284.609375 158.582031 -278.441406 171.84375 -266.109375 C 185.113281 -253.785156 191.75 -237.171875 191.75 -216.265625 C 191.75 -213.859375 191.476562 -209.972656 190.9375 -204.609375 L 189.734375 -195.765625 C 189.460938 -193.890625 188.722656 -192.414062 187.515625 -191.34375 C 186.316406 -190.269531 184.914062 -189.734375 183.3125 -189.734375 L 122.609375 -189.734375 C 120.992188 -189.734375 119.71875 -190.269531 118.78125 -191.34375 C 117.84375 -192.414062 117.507812 -193.890625 117.78125 -195.765625 L 118.984375 -206.21875 C 119.253906 -210.238281 118.515625 -213.519531 116.765625 -216.0625 C 115.023438 -218.613281 112.550781 -219.890625 109.34375 -219.890625 C 105.59375 -219.890625 102.507812 -218.28125 100.09375 -215.0625 C 97.675781 -211.84375 96.46875 -207.554688 96.46875 -202.203125 C 96.46875 -197.640625 98.34375 -192.945312 102.09375 -188.125 C 105.851562 -183.300781 112.820312 -176.601562 123 -168.03125 C 136.675781 -156.507812 147.128906 -147.195312 154.359375 -140.09375 C 161.597656 -132.988281 167.289062 -125.210938 171.4375 -116.765625 C 175.59375 -108.328125 177.671875 -98.75 177.671875 -88.03125 C 177.671875 -85.882812 177.40625 -82.132812 176.875 -76.78125 C 173.65625 -52.394531 163.535156 -32.960938 146.515625 -18.484375 C 129.503906 -4.015625 108.535156 3.21875 83.609375 3.21875 Z M 83.609375 3.21875 "/></g></g></g><g fill="rgb(0%, 0%, 0%)" fill-opacity="1"><g transform="translate(339.12288, 723.282727)"><g><path d="M 129.84375 -281.390625 C 151.28125 -281.390625 168.226562 -274.488281 180.6875 -260.6875 C 193.15625 -246.882812 199.390625 -228.59375 199.390625 -205.8125 C 199.390625 -199.382812 199.117188 -194.425781 198.578125 -190.9375 C 196.429688 -173.789062 191.40625 -158.648438 183.5 -145.515625 C 175.59375 -132.390625 165.410156 -122.273438 152.953125 -115.171875 C 140.492188 -108.066406 126.757812 -104.515625 111.75 -104.515625 L 89.640625 -104.515625 C 88.296875 -104.515625 87.625 -103.84375 87.625 -102.5 L 75.578125 -6.03125 C 75.304688 -4.15625 74.566406 -2.679688 73.359375 -1.609375 C 72.148438 -0.535156 70.742188 0 69.140625 0 L 7.234375 0 C 5.628906 0 4.359375 -0.535156 3.421875 -1.609375 C 2.484375 -2.679688 2.144531 -4.15625 2.40625 -6.03125 L 35.375 -275.359375 C 35.644531 -277.234375 36.378906 -278.707031 37.578125 -279.78125 C 38.785156 -280.851562 40.195312 -281.390625 41.8125 -281.390625 Z M 102.109375 -162.796875 C 108.003906 -162.796875 113.023438 -165.003906 117.171875 -169.421875 C 121.328125 -173.847656 123.941406 -180.484375 125.015625 -189.328125 C 125.285156 -190.941406 125.421875 -193.222656 125.421875 -196.171875 C 125.421875 -202.867188 123.945312 -207.957031 121 -211.4375 C 118.050781 -214.925781 114.03125 -216.671875 108.9375 -216.671875 L 103.3125 -216.671875 C 101.96875 -216.671875 101.296875 -216 101.296875 -214.65625 L 95.265625 -164.8125 C 94.734375 -163.46875 95.269531 -162.796875 96.875 -162.796875 Z M 102.109375 -162.796875 "/></g></g></g><g fill="rgb(0%, 0%, 0%)" fill-opacity="1"><g transform="translate(526.849948, 723.282727)"><g><path d="M 86.03125 3.21875 C 62.175781 3.21875 43.414062 -3.28125 29.75 -16.28125 C 16.082031 -29.28125 9.25 -46.898438 9.25 -69.140625 C 9.25 -71.816406 9.515625 -76.375 10.046875 -82.8125 L 24.515625 -198.578125 C 27.734375 -224.835938 38.117188 -245.738281 55.671875 -261.28125 C 73.222656 -276.832031 95.132812 -284.609375 121.40625 -284.609375 C 144.988281 -284.609375 163.675781 -278.109375 177.46875 -265.109375 C 191.269531 -252.109375 198.171875 -234.488281 198.171875 -212.25 C 198.171875 -209.570312 197.90625 -205.015625 197.375 -198.578125 L 183.3125 -82.8125 C 180.09375 -56.550781 169.640625 -35.644531 151.953125 -20.09375 C 134.265625 -4.550781 112.289062 3.21875 86.03125 3.21875 Z M 94.0625 -61.5 C 98.082031 -61.5 101.5 -63.109375 104.3125 -66.328125 C 107.125 -69.546875 108.929688 -73.96875 109.734375 -79.59375 L 124.609375 -201.796875 C 125.148438 -207.421875 124.484375 -211.84375 122.609375 -215.0625 C 120.734375 -218.28125 117.785156 -219.890625 113.765625 -219.890625 C 109.472656 -219.890625 105.921875 -218.28125 103.109375 -215.0625 C 100.296875 -211.84375 98.617188 -207.421875 98.078125 -201.796875 L 83.203125 -79.59375 C 82.941406 -78.519531 82.8125 -77.046875 82.8125 -75.171875 C 82.8125 -70.878906 83.816406 -67.523438 85.828125 -65.109375 C 87.835938 -62.703125 90.582031 -61.5 94.0625 -61.5 Z M 94.0625 -61.5 "/></g></g></g><g fill="rgb(0%, 0%, 0%)" fill-opacity="1"><g transform="translate(715.380915, 723.282727)"><g><path d="M 108.9375 0 C 105.71875 0 103.84375 -1.738281 103.3125 -5.21875 L 91.65625 -106.53125 C 91.65625 -107.601562 91.253906 -108.140625 90.453125 -108.140625 C 89.378906 -108.140625 88.84375 -107.46875 88.84375 -106.125 L 76.375 -6.03125 C 76.101562 -4.15625 75.363281 -2.679688 74.15625 -1.609375 C 72.957031 -0.535156 71.550781 0 69.9375 0 L 8.046875 0 C 6.429688 0 5.15625 -0.535156 4.21875 -1.609375 C 3.28125 -2.679688 2.945312 -4.15625 3.21875 -6.03125 L 36.171875 -275.359375 C 36.441406 -277.234375 37.179688 -278.707031 38.390625 -279.78125 C 39.597656 -280.851562 41.003906 -281.390625 42.609375 -281.390625 L 130.640625 -281.390625 C 152.078125 -281.390625 169.023438 -274.554688 181.484375 -260.890625 C 193.953125 -247.222656 200.1875 -229.132812 200.1875 -206.625 C 200.1875 -200.1875 199.921875 -195.226562 199.390625 -191.75 C 197.515625 -177.007812 193.359375 -163.8125 186.921875 -152.15625 C 180.492188 -140.5 172.1875 -131.050781 162 -123.8125 C 160.65625 -123.007812 160.253906 -122.070312 160.796875 -121 L 178.078125 -6.828125 L 178.078125 -5.21875 C 178.078125 -3.613281 177.539062 -2.34375 176.46875 -1.40625 C 175.394531 -0.46875 174.054688 0 172.453125 0 Z M 104.109375 -216.671875 C 102.773438 -216.671875 102.109375 -216 102.109375 -214.65625 L 96.078125 -167.625 C 96.078125 -166.289062 96.742188 -165.625 98.078125 -165.625 L 103.3125 -165.625 C 109.738281 -165.625 115.160156 -168.4375 119.578125 -174.0625 C 124.003906 -179.6875 126.21875 -187.457031 126.21875 -197.375 C 126.21875 -203.539062 124.742188 -208.296875 121.796875 -211.640625 C 118.847656 -214.992188 114.828125 -216.671875 109.734375 -216.671875 Z M 104.109375 -216.671875 "/></g></g></g><g fill="rgb(0%, 0%, 0%)" fill-opacity="1"><g transform="translate(906.323813, 723.282727)"><g><path d="M 208.625 -281.390625 C 210.238281 -281.390625 211.515625 -280.851562 212.453125 -279.78125 C 213.390625 -278.707031 213.722656 -277.234375 213.453125 -275.359375 L 207.015625 -222.703125 C 206.753906 -220.828125 206.085938 -219.351562 205.015625 -218.28125 C 203.941406 -217.207031 202.46875 -216.671875 200.59375 -216.671875 L 153.953125 -216.671875 C 152.617188 -216.671875 151.953125 -216 151.953125 -214.65625 L 126.21875 -6.03125 C 125.957031 -4.15625 125.289062 -2.679688 124.21875 -1.609375 C 123.144531 -0.535156 121.671875 0 119.796875 0 L 58.28125 0 C 56.40625 0 55 -0.535156 54.0625 -1.609375 C 53.125 -2.679688 52.789062 -4.15625 53.0625 -6.03125 L 78.78125 -214.65625 C 78.78125 -216 78.113281 -216.671875 76.78125 -216.671875 L 31.75 -216.671875 C 29.875 -216.671875 28.46875 -217.207031 27.53125 -218.28125 C 26.59375 -219.351562 26.257812 -220.828125 26.53125 -222.703125 L 32.96875 -275.359375 C 33.226562 -277.234375 33.960938 -278.707031 35.171875 -279.78125 C 36.378906 -280.851562 37.921875 -281.390625 39.796875 -281.390625 Z M 208.625 -281.390625 "/></g></g></g><g fill="rgb(0%, 0%, 0%)" fill-opacity="1"><g transform="translate(1100.884685, 723.282727)"><g><path d="M 83.609375 3.21875 C 60.566406 3.21875 42.34375 -2.742188 28.9375 -14.671875 C 15.539062 -26.597656 8.84375 -42.476562 8.84375 -62.3125 C 8.84375 -64.1875 9.109375 -67.535156 9.640625 -72.359375 L 11.25 -84.8125 C 11.519531 -86.6875 12.257812 -88.160156 13.46875 -89.234375 C 14.675781 -90.304688 16.082031 -90.84375 17.6875 -90.84375 L 78.78125 -90.84375 C 80.394531 -90.84375 81.671875 -90.304688 82.609375 -89.234375 C 83.546875 -88.160156 83.878906 -86.6875 83.609375 -84.8125 L 82.8125 -75.96875 C 82.269531 -71.6875 82.800781 -68.203125 84.40625 -65.515625 C 86.019531 -62.835938 88.4375 -61.5 91.65625 -61.5 C 95.132812 -61.5 98.078125 -62.972656 100.484375 -65.921875 C 102.898438 -68.867188 104.109375 -72.488281 104.109375 -76.78125 C 104.109375 -80.800781 102.164062 -84.953125 98.28125 -89.234375 C 94.394531 -93.523438 86.957031 -100.09375 75.96875 -108.9375 C 65.25 -117.78125 56.40625 -125.617188 49.4375 -132.453125 C 42.476562 -139.285156 36.453125 -147.726562 31.359375 -157.78125 C 26.265625 -167.832031 23.71875 -179.289062 23.71875 -192.15625 C 23.71875 -194.5625 23.984375 -198.710938 24.515625 -204.609375 C 27.460938 -228.460938 37.378906 -247.757812 54.265625 -262.5 C 71.148438 -277.238281 92.1875 -284.609375 117.375 -284.609375 C 140.425781 -284.609375 158.582031 -278.441406 171.84375 -266.109375 C 185.113281 -253.785156 191.75 -237.171875 191.75 -216.265625 C 191.75 -213.859375 191.476562 -209.972656 190.9375 -204.609375 L 189.734375 -195.765625 C 189.460938 -193.890625 188.722656 -192.414062 187.515625 -191.34375 C 186.316406 -190.269531 184.914062 -189.734375 183.3125 -189.734375 L 122.609375 -189.734375 C 120.992188 -189.734375 119.71875 -190.269531 118.78125 -191.34375 C 117.84375 -192.414062 117.507812 -193.890625 117.78125 -195.765625 L 118.984375 -206.21875 C 119.253906 -210.238281 118.515625 -213.519531 116.765625 -216.0625 C 115.023438 -218.613281 112.550781 -219.890625 109.34375 -219.890625 C 105.59375 -219.890625 102.507812 -218.28125 100.09375 -215.0625 C 97.675781 -211.84375 96.46875 -207.554688 96.46875 -202.203125 C 96.46875 -197.640625 98.34375 -192.945312 102.09375 -188.125 C 105.851562 -183.300781 112.820312 -176.601562 123 -168.03125 C 136.675781 -156.507812 147.128906 -147.195312 154.359375 -140.09375 C 161.597656 -132.988281 167.289062 -125.210938 171.4375 -116.765625 C 175.59375 -108.328125 177.671875 -98.75 177.671875 -88.03125 C 177.671875 -85.882812 177.40625 -82.132812 176.875 -76.78125 C 173.65625 -52.394531 163.535156 -32.960938 146.515625 -18.484375 C 129.503906 -4.015625 108.535156 3.21875 83.609375 3.21875 Z M 83.609375 3.21875 "/></g></g></g></svg>